<?xml version="1.0" encoding="UTF-8" standalone="no"?>
<!DOCTYPE svg PUBLIC "-//W3C//DTD SVG 1.1//EN" "http://www.w3.org/Graphics/SVG/1.1/DTD/svg11.dtd">
<svg width="100%" height="100%" viewBox="0 0 1024 999" version="1.1" xmlns="http://www.w3.org/2000/svg" xmlns:xlink="http://www.w3.org/1999/xlink" xml:space="preserve" xmlns:serif="http://www.serif.com/" style="fill-rule:evenodd;clip-rule:evenodd;stroke-linejoin:round;stroke-miterlimit:2;">
    <rect id="Artboard1" x="0" y="0" width="1024" height="999" style="fill:white;"/>
    <g id="Artboard11" serif:id="Artboard1">
        <g transform="matrix(-0.199196,0,-0.815789,0.991228,1002.77,4.81579)">
            <rect x="540.282" y="321" width="76.718" height="114" style="fill:rgb(73,108,164);"/>
        </g>
        <g transform="matrix(-8.04043e-15,0.999958,-0.776076,0.942974,882.402,-512.954)">
            <rect x="540.282" y="321" width="76.718" height="114" style="fill:rgb(40,130,191);"/>
        </g>
        <g>
            <path d="M186,231L106.588,231L106.588,249C122.613,249.564 128.783,261.126 129.588,289L129.822,461C130.051,492.232 124.58,500.449 106.588,501L106.588,519L186,519L186,501C170.981,501.091 163.715,492.841 163.6,461L163.002,289C163.505,263.252 167.753,249.376 186,249L186,231Z" style="fill:rgb(14,70,137);"/>
            <g transform="matrix(0.989488,0,-11.4783,13.75,2607.52,-2895.25)">
                <rect x="106.588" y="219" width="79.412" height="8" style="fill:rgb(73,108,164);"/>
            </g>
            <g transform="matrix(-6.0937e-15,-0.219917,-11.2696,13.5,2748.37,-2796.6)">
                <rect x="106.588" y="219" width="79.412" height="8" style="fill:rgb(40,130,191);"/>
            </g>
            <g transform="matrix(-6.10599e-15,-0.220368,-11.2019,13.419,2733.56,-2508.27)">
                <rect x="106.588" y="219" width="79.412" height="8" style="fill:rgb(40,130,191);"/>
            </g>
            <g transform="matrix(1,0,0,1,94.3304,-116.481)">
                <path d="M163.028,287.999L163.6,459C163.715,490.831 170.977,499.086 185.985,499L91.67,611.981C91,611.987 90.354,611.953 89.732,611.882C77.847,610.509 74.311,600.16 73.67,576.529L73.67,404.479C72.745,378.414 83.389,369.26 95.206,369.245L163.028,287.999Z" style="fill:rgb(112,162,209);"/>
            </g>
        </g>
        <g>
            <rect x="258" y="476.648" width="36" height="42.352" style="fill:rgb(14,70,137);"/>
            <g transform="matrix(1,0,-2.15032,2.6278,1116.02,-891.83)">
                <rect x="258" y="476.648" width="36" height="42.352" style="fill:rgb(73,108,164);"/>
            </g>
            <g transform="matrix(1.21892e-15,-1.10289,-2.11848,2.58889,1398.29,-544.737)">
                <rect x="258" y="476.648" width="36" height="42.352" style="fill:rgb(40,130,191);"/>
            </g>
        </g>
        <g transform="matrix(2.76984,0,0,1,66.3569,0)">
            <path d="M171,231L106.588,231L106.588,305.268L113.447,305.373C115.593,270.958 120.357,248.689 127.363,249L157.095,249L106.588,501L106.588,519L171,519L171.102,440.094L165.309,440.244C164.771,481.013 159.169,500.806 151.504,501L119.734,501L171,249L171,231Z" style="fill:rgb(14,70,137);"/>
        </g>
        <g transform="matrix(2.20644,0,-11.687,14,2782.66,-2952)">
            <rect x="106.588" y="219" width="79.412" height="8" style="fill:rgb(73,108,164);"/>
        </g>
        <g transform="matrix(0.858742,-0.49247,-17.5682,30.8147,4300.71,-6445.11)">
            <path d="M149.049,216.625L106.588,219L106.588,227L145.894,223.73L149.049,216.625Z" style="fill:rgb(112,162,209);"/>
        </g>
        <g transform="matrix(0.858742,-0.49247,-17.5682,30.8147,4300.71,-6445.11)">
            <path d="M270.901,225.711L246.328,227.243C276.178,228.785 285.107,229.706 248.006,229.26L118.699,227.194L158.006,223.924L270.901,225.711Z" style="fill:rgb(73,108,164);"/>
        </g>
        <g transform="matrix(-6.09394e-15,-0.219917,-11.3739,13.625,3125.5,-2823.97)">
            <rect x="106.588" y="219" width="79.412" height="8" style="fill:rgb(40,130,191);"/>
        </g>
        <g>
            <g transform="matrix(1,0,0,1,344.851,0)">
                <rect x="258" y="476.648" width="36" height="42.352" style="fill:rgb(14,70,137);"/>
            </g>
            <g transform="matrix(1,0,-2.20829,2.69864,1490.95,-927.593)">
                <rect x="258" y="476.648" width="36" height="42.352" style="fill:rgb(73,108,164);"/>
            </g>
            <g transform="matrix(1.21892e-15,-1.10289,-2.11848,2.58889,1742.15,-544.737)">
                <rect x="258" y="476.648" width="36" height="42.352" style="fill:rgb(40,130,191);"/>
            </g>
        </g>
        <g transform="matrix(9.48291,0,0,9.48291,-2318.83,-5070.87)">
            <text x="273.3px" y="605.431px" style="font-family:'FONTSPRINGDEMO-OrganettoRegular', 'FONTSPRING DEMO - Organetto';font-size:16px;fill:rgb(14,70,137);">25 A</text>
            <text x="307.748px" y="605.431px" style="font-family:'ArialMT', 'Arial', sans-serif;font-size:16px;fill:rgb(14,70,137);">Ñ</text>
            <text x="319.303px" y="605.431px" style="font-family:'FONTSPRINGDEMO-OrganettoRegular', 'FONTSPRING DEMO - Organetto';font-size:16px;fill:rgb(14,70,137);">OS</text>
        </g>
        <g transform="matrix(5.62107,0,0,5.62107,-794.563,-2896.54)">
            <text x="274.458px" y="605.431px" style="font-family:'FONTSPRINGDEMO-OrganettoRegular', 'FONTSPRING DEMO - Organetto';font-size:15.418px;fill:rgb(14,70,137);">SAS</text>
        </g>
        <g transform="matrix(6.32531,0,0,6.32531,-1630.12,-3061.92)">
            <text x="273.3px" y="605.431px" style="font-family:'FONTSPRINGDEMO-OrganettoRegular', 'FONTSPRING DEMO - Organetto';font-size:16px;fill:rgb(14,70,137);">INGENIER</text>
            <text x="347.044px" y="605.431px" style="font-family:'ArialMT', 'Arial', sans-serif;font-size:16px;fill:rgb(14,70,137);">Í</text>
            <text x="351.49px" y="605.431px" style="font-family:'FONTSPRINGDEMO-OrganettoRegular', 'FONTSPRING DEMO - Organetto';font-size:16px;fill:rgb(14,70,137);">A BIEN</text>
        </g>
        <g transform="matrix(7.43445,0,0,7.43445,-1934.74,-3617.97)">
            <text x="273.3px" y="605.431px" style="font-family:'FONTSPRINGDEMO-OrganettoRegular', 'FONTSPRING DEMO - Organetto';font-size:16.141px;fill:rgb(14,70,137);">PROYECTADA</text>
        </g>
    </g>
</svg>
